Coordinates
version=1
nRows=19
nColumns=36
inDegrees=yes

Units are S.I. units (second, meters, Newtons, ...)
If the header above contains a line with 'inDegrees', this indicates whether rotational values are in degrees (yes) or radians (no).

endheader
time	pelvis_tilt	pelvis_list	pelvis_rotation	pelvis_tx	pelvis_ty	pelvis_tz	hip_flexion_r	hip_adduction_r	hip_rotation_r	knee_angle_r	knee_angle_r_beta	ankle_angle_r	subtalar_angle_r	mtp_angle_r	hip_flexion_l	hip_adduction_l	hip_rotation_l	knee_angle_l	knee_angle_l_beta	ankle_angle_l	subtalar_angle_l	mtp_angle_l	lumbar_extension	lumbar_bending	lumbar_rotation	arm_flex_r	arm_add_r	arm_rot_r	elbow_flex_r	pro_sup_r	arm_flex_l	arm_add_l	arm_rot_l	elbow_flex_l	pro_sup_l
      0.00000000	      1.67386981	     -1.21525988	     -1.37224946	     -1.05718661	      1.31730742	     -0.07566869	     -2.39254360	      2.30623420	      3.88614989	      3.36401291	      0.05871310	      3.11876270	    -14.35075457	     -5.59008655	     -4.02875131	     -2.57213089	      4.24336598	      4.21126779	      0.07350049	      5.70663533	    -16.49509177	     -5.59008655	    -11.29548572	      2.59959486	      0.22439777	      0.57828870	     -8.38505570	      0.41183659	     28.82804764	     77.99905655	      1.39949600	     -7.48079050	      9.86161016	     24.70782784	     68.97069430
      0.00416670	     -0.65290831	     -1.21242923	     -2.67086937	     -1.05484391	      1.31348684	     -0.07543381	      0.68492425	      2.30045399	      4.85690455	      4.86201209	      0.08485812	      6.08488294	    -12.22497968	     -6.32895599	     -1.29682184	     -2.17853894	      3.94067162	      4.33602773	      0.07567796	      5.06706170	    -16.35022450	     -6.32895599	     -8.20288628	      3.05955062	      0.92359086	     -0.48250303	     -7.35988056	     -7.04716125	     29.28648994	     84.10609003	      0.32260253	     -5.22073068	     -0.75005937	     24.25487299	     75.99927089
      0.00833330	     -1.35229737	     -0.64848308	     -3.67459635	     -1.05479154	      1.31192973	     -0.07397792	      1.44285770	      1.65750611	      4.44802644	      4.89020893	      0.08535025	      6.85507930	    -11.12120083	     -6.47406409	     -0.30944837	     -1.58376267	      3.18031258	      4.85413026	      0.08472056	      5.18289834	    -16.98070496	     -6.47406409	     -7.20738557	      2.19899047	      1.82199128	     -1.11912302	     -7.06479795	     -7.91019022	     29.75251291	     82.18614323	      0.00552752	     -5.46891062	     -0.80093931	     24.44192862	     74.94178502
      0.01250000	     -1.06614944	     -0.39083717	     -4.34503387	     -1.05498540	      1.31267278	     -0.07302986	      1.24942813	      1.34189940	      4.11674618	      4.76010638	      0.08307953	      7.47270912	    -10.37455067	     -6.65891155	     -0.97294533	     -1.20558834	      2.97180004	      4.43359512	      0.07738083	      5.13703927	    -17.76121308	     -6.65891155	     -7.66528288	      1.79776197	      2.43734051	     -1.42316305	     -7.02046301	     -8.19370506	     30.65277804	     79.43578761	     -0.24331411	     -5.73374389	     -0.28072584	     25.05270936	     73.21346803
      0.01666670	     -0.98851022	     -0.30097630	     -4.82433246	     -1.05528552	      1.31268653	     -0.07249559	      1.14102907	      1.25407425	      4.26418280	      4.60050128	      0.08029389	      7.64057316	    -10.19379613	     -6.69739874	     -1.14131864	     -1.05712608	      2.84209526	      4.31962763	      0.07539172	      5.13676530	    -18.57877040	     -6.69739874	     -7.76559556	      1.72239647	      2.97669875	     -1.51073934	     -7.11339142	     -8.12048524	     30.98859856	     79.01479894	     -0.15552693	     -5.79152245	      0.53636111	     24.96541090	     73.20584084
      0.02083330	     -0.74439456	     -0.21000106	     -5.00469534	     -1.04889824	      1.31290275	     -0.06781085	      0.57428778	      1.23295858	      4.45109760	      4.25363077	      0.07423986	      7.71867995	    -10.14087509	     -6.72811863	     -1.82555417	     -1.01816233	      2.87257679	      3.92545324	      0.06851208	      5.00581357	    -19.27976892	     -6.72811863	     -7.87751414	      1.58731448	      3.42075407	     -1.95460612	     -7.00862582	     -8.15173010	     31.48995979	     78.88573875	     -0.03259430	     -6.09835863	      1.98109925	     24.71734014	     73.66023054
      0.02500000	     -0.80648971	     -0.15814879	     -5.06955552	     -1.05566537	      1.31258677	     -0.07211355	      0.60219846	      1.16652104	      4.36590646	      4.15444396	      0.07250873	      7.78410591	    -10.18663931	     -6.72889835	     -1.78550353	     -0.96347253	      2.74311072	      3.80498483	      0.06640951	      5.13274041	    -19.39989747	     -6.72889835	     -7.74410933	      1.63123808	      3.45044136	     -1.76252564	     -7.02464690	     -8.14885210	     31.55005684	     78.88191119	      0.25438382	     -6.11040198	      1.99275297	     24.81511369	     73.66448240
      0.02916670	     -0.70421882	     -0.11412038	     -5.18090974	     -1.05572093	      1.31251936	     -0.07197017	      0.41938248	      1.09709369	      4.59809154	      3.92119508	      0.06843776	      7.67736362	    -10.36030490	     -6.85563751	     -1.97806929	     -0.89343520	      2.87227208	      3.52841536	      0.06158247	      4.85950400	    -20.05852017	     -6.85563751	     -7.81386060	      1.53920744	      4.01278776	     -1.86226239	     -7.17083665	     -7.74877079	     31.63379866	     77.44051581	      0.77792535	     -6.06777179	      3.01492992	     24.49905242	     72.85799563
      0.03333330	     -0.62716054	     -0.08954496	     -5.31477263	     -1.05583689	      1.31242342	     -0.07190808	      0.34147374	      1.04934534	      4.63827999	      3.79247072	      0.06619110	      7.83655008	     -9.96765711	     -6.95611268	     -2.10935729	     -0.85381450	      2.76010837	      3.34335728	      0.05835259	      4.70031541	    -20.29502811	     -6.95611268	     -7.98121292	      1.51929034	      4.20192033	     -1.81907691	     -7.23819965	     -7.58265476	     31.88316602	     75.68240521	      1.03950365	     -6.08205215	      3.13621485	     24.87677569	     71.51903297
      0.03750000	     -0.60397198	     -0.10551862	     -5.47242286	     -1.05592387	      1.31240387	     -0.07171000	      0.30361036	      1.03520230	      4.83850296	      3.68721086	      0.06435397	      7.54022016	    -10.15760502	     -6.99945493	     -2.16179931	     -0.83911873	      2.69357391	      3.22172354	      0.05622968	      4.47666322	    -20.45384698	     -6.99945493	     -8.10493426	      1.59284854	      4.37490720	     -1.73871230	     -7.35268945	     -7.38035521	     31.96758459	     75.03036220	      1.31571687	     -6.06774138	      3.26499533	     24.99292570	     71.02445288
      0.04166670	     -0.61846387	     -0.06787944	     -5.56359674	     -1.05598605	      1.31231875	     -0.07157408	      0.30656761	      0.98671055	      5.06122986	      3.58975864	      0.06265311	      7.49297225	    -10.32736083	     -7.04607061	     -2.13861085	     -0.78615855	      2.77448124	      3.12239527	      0.05449608	      4.28432677	    -20.58718710	     -7.04607061	     -8.16418419	      1.61055172	      4.39587280	     -1.64301274	     -7.39070815	     -7.14752187	     31.98568072	     74.53112671	      1.51482952	     -6.09182835	      3.40497998	     24.95762539	     70.65929855
      0.04583330	     -0.59538446	     -0.03194396	     -5.53120994	     -1.05597332	      1.31203635	     -0.07148109	      0.22021962	      0.92333173	      5.12395022	      3.39792116	      0.05930491	      7.41203660	    -10.47050048	     -7.07790615	     -2.14542014	     -0.76122012	      2.87939508	      3.09840628	      0.05407739	      4.02724204	    -20.72125990	     -7.07790615	     -8.15876043	      1.57649531	      4.43871138	     -1.71072524	     -7.43923877	     -7.01034179	     32.22740701	     74.17302515	      1.60667093	     -6.15575283	      3.47886526	     25.14030773	     70.40264586
      0.05000000	     -0.51351069	     -0.07348039	     -5.49634553	     -1.04968225	      1.30811830	     -0.06731542	     -0.07388360	      1.03791494	      5.40290761	      3.24794926	      0.05668741	      7.23023905	    -10.93534423	     -7.11516814	     -2.28647953	     -0.86892650	      3.16244336	      3.34021205	      0.05829770	      4.00663458	    -21.00534847	     -7.11516814	     -7.96122561	      1.55458724	      4.44865750	     -1.90577957	     -7.38336983	     -6.69634559	     32.12750709	     74.34140600	      1.48744975	     -6.28111270	      3.61664388	     25.04915267	     70.66691143
      0.05416670	     -0.51868069	     -0.15208357	     -5.53736733	     -1.04948470	      1.31244896	     -0.06712968	     -0.23970501	      1.20360284	      5.51344292	      3.18146888	      0.05552711	      7.29868165	    -10.90796110	     -7.11663294	     -2.36479242	     -1.00699022	      3.20603271	      3.45930373	      0.06037624	      4.07583283	    -21.07561250	     -7.11663294	     -7.78206534	      1.59993994	      4.48711105	     -2.08650727	     -7.30351803	     -6.70121062	     32.09967055	     74.40064612	      1.35137520	     -6.37784648	      3.59368981	     25.02434533	     70.71428690
      0.05833330	     -0.64164345	     -0.16446281	     -5.52509290	     -1.04937027	      1.31234584	     -0.06712821	     -0.30998620	      1.28395637	      5.53146326	      3.01562324	      0.05263255	      7.31046689	    -10.78623606	     -7.12471976	     -2.45729185	     -1.07428372	      3.36284850	      3.34588671	      0.05839674	      4.19393103	    -20.98178092	     -7.12471976	     -7.41816420	      1.63160429	      4.46893306	     -2.37987063	     -7.22375588	     -6.70868033	     32.26807199	     74.26452544	      1.10214964	     -6.46910817	      3.55380961	     25.20662725	     70.60969104
      0.06250000	     -0.49316992	     -0.21847907	     -5.53658527	     -1.04936407	      1.31271660	     -0.06714548	     -0.66388326	      1.37662506	      5.76106136	      2.82243285	      0.04926075	      7.05611805	    -11.25311986	     -7.13919008	     -2.82574148	     -1.11641026	      3.65200797	      3.12549354	      0.05455015	      4.10863819	    -21.17383383	     -7.13919008	     -7.57426674	      1.65105572	      4.53785862	     -2.36626815	     -7.18443552	     -6.83359133	     32.09564798	     74.35007575	      1.17861360	     -6.50957761	      3.44760826	     25.06417177	     70.70987581
      0.06666670	     -0.56138519	     -0.25460138	     -5.55436742	     -1.04932684	      1.31265434	     -0.06713770	     -0.71611630	      1.45281636	      5.99495850	      2.66817445	      0.04656843	      6.96675757	    -11.56378666	     -7.26216722	     -2.88967219	     -1.16811805	      3.91904038	      2.97458698	      0.05191634	      3.88078217	    -21.66661893	     -7.26216722	     -7.38156383	      1.70954033	      4.59045318	     -2.50437800	     -6.99307970	     -8.00832344	     32.03836531	     78.80241112	      1.09165968	     -6.40494211	      2.49931640	     24.91997886	     74.84912144
      0.07083330	     -0.55107856	     -0.27335819	     -5.57891779	     -1.04917070	      1.31250709	     -0.06702589	     -0.82956080	      1.48590862	      6.09231507	      2.53531363	      0.04424957	      6.97197795	    -11.62369427	     -7.27513702	     -3.04280564	     -1.20479322	      4.07959803	      2.75540725	      0.04809093	      3.83295333	    -21.79564848	     -7.27513702	     -7.40300203	      1.75441956	      4.55616220	     -2.52545969	     -6.96846204	     -8.05490621	     32.07254081	     78.31668541	      1.01410066	     -6.41824129	      2.37415771	     25.02315716	     74.45415733
      0.07500000	     -0.65055947	     -0.26996720	     -5.55703666	     -1.04923356	      1.31242708	     -0.06702770	     -0.78030122	      1.52901220	      6.20339154	      2.38762831	      0.04167198	      6.76264722	    -12.02257119	     -7.30689613	     -3.09929339	     -1.21206538	      4.35701889	      2.50223465	      0.04367223	      3.58672700	    -22.14523669	     -7.30689613	     -7.25657592	      1.80038066	      4.41713452	     -2.46868071	     -6.94517605	     -7.93153351	     31.90160885	     77.56717444	      0.92998463	     -6.41464681	      2.32828277	     24.89726575	     73.94041793
